<?xml version="1.0" encoding="UTF-8" standalone="no"?>
<!-- Created with Inkscape (http://www.inkscape.org/) -->

<svg
   xmlns:dc="http://purl.org/dc/elements/1.1/"
   xmlns:cc="http://creativecommons.org/ns#"
   xmlns:rdf="http://www.w3.org/1999/02/22-rdf-syntax-ns#"
   xmlns:svg="http://www.w3.org/2000/svg"
   xmlns="http://www.w3.org/2000/svg"
   xmlns:xlink="http://www.w3.org/1999/xlink"
   xmlns:sodipodi="http://sodipodi.sourceforge.net/DTD/sodipodi-0.dtd"
   xmlns:inkscape="http://www.inkscape.org/namespaces/inkscape"
   width="210mm"
   height="297mm"
   viewBox="0 0 210 297"
   version="1.1"
   id="svg8"
   inkscape:version="0.92.4 (5da689c313, 2019-01-14)"
   sodipodi:docname="whetstone.svg">
  <defs
     id="defs2">
    <linearGradient
       inkscape:collect="always"
       id="linearGradient9974">
      <stop
         style="stop-color:#c400db;stop-opacity:1"
         offset="0"
         id="stop9970" />
      <stop
         style="stop-color:#642cf7;stop-opacity:1"
         offset="1"
         id="stop9972" />
    </linearGradient>
    <linearGradient
       inkscape:collect="always"
       id="linearGradient1276">
      <stop
         style="stop-color:#9e008f;stop-opacity:1"
         offset="0"
         id="stop1272" />
      <stop
         style="stop-color:#74fff3;stop-opacity:1"
         offset="1"
         id="stop1274" />
    </linearGradient>
    <linearGradient
       id="linearGradient1180"
       inkscape:collect="always">
      <stop
         id="stop1176"
         offset="0"
         style="stop-color:#ffcf1e;stop-opacity:1" />
      <stop
         id="stop1178"
         offset="1"
         style="stop-color:#ff5c40;stop-opacity:1" />
    </linearGradient>
    <linearGradient
       id="linearGradient1174"
       inkscape:collect="always">
      <stop
         id="stop1170"
         offset="0"
         style="stop-color:#ffcf1e;stop-opacity:1" />
      <stop
         id="stop1172"
         offset="1"
         style="stop-color:#ff5c40;stop-opacity:1" />
    </linearGradient>
    <linearGradient
       id="linearGradient1168"
       inkscape:collect="always">
      <stop
         id="stop1164"
         offset="0"
         style="stop-color:#ffcf1e;stop-opacity:1" />
      <stop
         id="stop1166"
         offset="1"
         style="stop-color:#ff5c40;stop-opacity:1" />
    </linearGradient>
    <linearGradient
       id="linearGradient1162"
       inkscape:collect="always">
      <stop
         id="stop1158"
         offset="0"
         style="stop-color:#ffcf1e;stop-opacity:1" />
      <stop
         id="stop1160"
         offset="1"
         style="stop-color:#ff5c40;stop-opacity:1" />
    </linearGradient>
    <linearGradient
       id="linearGradient1156"
       inkscape:collect="always">
      <stop
         id="stop1152"
         offset="0"
         style="stop-color:#ffcf1e;stop-opacity:1" />
      <stop
         id="stop1154"
         offset="1"
         style="stop-color:#ff5c40;stop-opacity:1" />
    </linearGradient>
    <linearGradient
       id="linearGradient1150"
       inkscape:collect="always">
      <stop
         id="stop1146"
         offset="0"
         style="stop-color:#ffcf1e;stop-opacity:1" />
      <stop
         id="stop1148"
         offset="1"
         style="stop-color:#ff5c40;stop-opacity:1" />
    </linearGradient>
    <linearGradient
       id="linearGradient1144"
       inkscape:collect="always">
      <stop
         id="stop1140"
         offset="0"
         style="stop-color:#ffcf1e;stop-opacity:1" />
      <stop
         id="stop1142"
         offset="1"
         style="stop-color:#ff5c40;stop-opacity:1" />
    </linearGradient>
    <linearGradient
       id="linearGradient1138"
       inkscape:collect="always">
      <stop
         id="stop1134"
         offset="0"
         style="stop-color:#ffcf1e;stop-opacity:1" />
      <stop
         id="stop1136"
         offset="1"
         style="stop-color:#ff5c40;stop-opacity:1" />
    </linearGradient>
    <linearGradient
       inkscape:collect="always"
       id="linearGradient906">
      <stop
         style="stop-color:#ffcf1e;stop-opacity:1"
         offset="0"
         id="stop902" />
      <stop
         style="stop-color:#ff5c40;stop-opacity:1"
         offset="1"
         id="stop904" />
    </linearGradient>
    <linearGradient
       inkscape:collect="always"
       xlink:href="#linearGradient906"
       id="linearGradient908"
       x1="98.026817"
       y1="91.806122"
       x2="98.026817"
       y2="134.63376"
       gradientUnits="userSpaceOnUse"
       gradientTransform="matrix(0.98753872,0,0,1.1079878,-5.6551552,-1.0252128)" />
    <linearGradient
       inkscape:collect="always"
       xlink:href="#linearGradient1180"
       id="linearGradient910"
       x1="98.026817"
       y1="91.806122"
       x2="98.026817"
       y2="134.63376"
       gradientUnits="userSpaceOnUse"
       gradientTransform="matrix(0.98753872,0,0,1.1079878,-5.6551552,-1.0252128)" />
    <linearGradient
       inkscape:collect="always"
       xlink:href="#linearGradient1174"
       id="linearGradient912"
       x1="98.026817"
       y1="91.806122"
       x2="98.026817"
       y2="134.63376"
       gradientUnits="userSpaceOnUse"
       gradientTransform="matrix(0.98753872,0,0,1.1079878,-5.6551552,-1.0252128)" />
    <linearGradient
       inkscape:collect="always"
       xlink:href="#linearGradient1168"
       id="linearGradient914"
       x1="98.026817"
       y1="91.806122"
       x2="98.026817"
       y2="134.63376"
       gradientUnits="userSpaceOnUse"
       gradientTransform="matrix(0.98753872,0,0,1.1079878,-5.6551552,-1.0252128)" />
    <linearGradient
       inkscape:collect="always"
       xlink:href="#linearGradient1162"
       id="linearGradient916"
       x1="98.026817"
       y1="91.806122"
       x2="98.026817"
       y2="134.63376"
       gradientUnits="userSpaceOnUse"
       gradientTransform="matrix(0.98753872,0,0,1.1079878,-5.6551552,-1.0252128)" />
    <linearGradient
       inkscape:collect="always"
       xlink:href="#linearGradient1156"
       id="linearGradient918"
       x1="98.026817"
       y1="91.806122"
       x2="98.026817"
       y2="134.63376"
       gradientUnits="userSpaceOnUse"
       gradientTransform="matrix(0.98753872,0,0,1.1079878,-5.6551552,-1.0252128)" />
    <linearGradient
       inkscape:collect="always"
       xlink:href="#linearGradient1150"
       id="linearGradient920"
       x1="98.026817"
       y1="91.806122"
       x2="98.026817"
       y2="134.63376"
       gradientUnits="userSpaceOnUse"
       gradientTransform="matrix(0.98753872,0,0,1.1079878,-5.6551552,-1.0252128)" />
    <linearGradient
       inkscape:collect="always"
       xlink:href="#linearGradient1144"
       id="linearGradient922"
       x1="98.026817"
       y1="91.806122"
       x2="98.026817"
       y2="134.63376"
       gradientUnits="userSpaceOnUse"
       gradientTransform="matrix(0.98753872,0,0,1.1079878,-5.6551552,-1.0252128)" />
    <linearGradient
       inkscape:collect="always"
       xlink:href="#linearGradient1138"
       id="linearGradient924"
       x1="98.026817"
       y1="91.806122"
       x2="98.026817"
       y2="134.63376"
       gradientUnits="userSpaceOnUse"
       gradientTransform="matrix(0.98753872,0,0,1.1079878,-5.6551552,-1.0252128)" />
    <linearGradient
       gradientTransform="matrix(1.0911067,0,0,1.0911067,144.27275,129.71114)"
       inkscape:collect="always"
       xlink:href="#linearGradient1138-5"
       id="linearGradient924-5"
       x1="98.026817"
       y1="91.806122"
       x2="98.026817"
       y2="134.63376"
       gradientUnits="userSpaceOnUse" />
    <linearGradient
       id="linearGradient1138-5"
       inkscape:collect="always">
      <stop
         id="stop1134-4"
         offset="0"
         style="stop-color:#1ee5ff;stop-opacity:1" />
      <stop
         id="stop1136-5"
         offset="1"
         style="stop-color:#74fff3;stop-opacity:1" />
    </linearGradient>
    <linearGradient
       gradientTransform="matrix(1.0911067,0,0,1.0911067,145.43906,164.97319)"
       inkscape:collect="always"
       xlink:href="#linearGradient1276"
       id="linearGradient924-5-5"
       x1="98.026817"
       y1="91.806122"
       x2="98.026817"
       y2="134.63376"
       gradientUnits="userSpaceOnUse" />
    <symbol
       id="Cashier">
      <title
         id="title1569">Cashier</title>
      <g
         style="fill:none;stroke-width:6"
         id="g1575">
        <circle
           style="stroke-width:1.58749998"
           cx="9.5249996"
           cy="9.5249996"
           r="6.3499999"
           id="circle1571" />
        <path
           style="stroke-width:1.58749998"
           inkscape:connector-curvature="0"
           d="M 11.90625,7.9375 C 11.90625,6.8791667 10.847917,6.35 9.525,6.35 c -1.3229167,0 -2.38125,0.5291667 -2.38125,1.5875 0,1.0583333 1.0583333,1.4552083 2.38125,1.5875 1.322917,0.1322917 2.645833,0.2645833 2.645833,1.5875 0,1.322917 -1.322916,1.5875 -2.645833,1.5875 -1.3229167,0 -2.38125,-0.79375 -2.38125,-1.852083 M 9.525,4.4979167 V 14.552083"
           id="path1573" />
      </g>
    </symbol>
    <linearGradient
       inkscape:collect="always"
       xlink:href="#linearGradient1180"
       id="linearGradient924-0"
       x1="98.026817"
       y1="91.806122"
       x2="98.026817"
       y2="134.63376"
       gradientUnits="userSpaceOnUse"
       gradientTransform="matrix(0.98753871,0,0,1.1079878,27.934927,108.87973)" />
    <linearGradient
       inkscape:collect="always"
       xlink:href="#linearGradient9974"
       id="linearGradient9976"
       x1="142.686"
       y1="212.52232"
       x2="138.1503"
       y2="235.2009"
       gradientUnits="userSpaceOnUse" />
  </defs>
  <sodipodi:namedview
     id="base"
     pagecolor="#ffffff"
     bordercolor="#666666"
     borderopacity="1.0"
     inkscape:pageopacity="0.0"
     inkscape:pageshadow="2"
     inkscape:zoom="0.98994949"
     inkscape:cx="419.96475"
     inkscape:cy="743.80209"
     inkscape:document-units="mm"
     inkscape:current-layer="text12-5"
     showgrid="false"
     inkscape:window-width="2560"
     inkscape:window-height="1017"
     inkscape:window-x="1016"
     inkscape:window-y="492"
     inkscape:window-maximized="1" />
  <metadata
     id="metadata5">
    <rdf:RDF>
      <cc:Work
         rdf:about="">
        <dc:format>image/svg+xml</dc:format>
        <dc:type
           rdf:resource="http://purl.org/dc/dcmitype/StillImage" />
        <dc:title></dc:title>
      </cc:Work>
    </rdf:RDF>
  </metadata>
  <g
     inkscape:label="Layer 1"
     inkscape:groupmode="layer"
     id="layer1">
    <g
       aria-label="Whetstone"
       style="font-style:normal;font-variant:normal;font-weight:normal;font-stretch:normal;font-size:38.97896576px;line-height:1.25;font-family:'DMF Cantell';-inkscape-font-specification:'DMF Cantell, Normal';font-variant-ligatures:normal;font-variant-caps:normal;font-variant-numeric:normal;font-feature-settings:normal;text-align:start;letter-spacing:0px;word-spacing:0px;writing-mode:lr-tb;text-anchor:start;fill:#000000;fill-opacity:1;stroke:none;stroke-width:1.74085772"
       id="text12-5"
       transform="translate(3.4017857,-61.232143)">
      <rect
         style="opacity:1;fill:#d26e00;fill-opacity:1;stroke:none;stroke-width:0.63950586;stroke-linejoin:bevel;stroke-miterlimit:4;stroke-dasharray:none;stroke-dashoffset:0;stroke-opacity:1"
         id="rect1406"
         width="202.92772"
         height="52.898773"
         x="-0.78285676"
         y="134.07736"
         ry="4.5821042" />
      <path
         d="m 30.846855,175.56611 c -0.282284,0 -0.526075,-0.0576 -0.731372,-0.17276 -0.179635,-0.11516 -0.295116,-0.3167 -0.346439,-0.60463 l -3.926311,-20.98947 -4.157271,20.98947 c -0.05132,0.28793 -0.179636,0.48947 -0.384932,0.60463 -0.179636,0.11518 -0.410596,0.17276 -0.692879,0.17276 h -2.463567 c -0.564567,0 -0.923838,-0.25912 -1.077811,-0.77739 L 9.6370786,145.24797 c -0.2309597,-0.51825 -0.076989,-0.77738 0.4619184,-0.77738 h 3.656859 c 0.590229,0 0.936668,0.27353 1.039315,0.82057 l 5.476939,24.20354 13.400687,4.25175 -12.013149,-16.03331 2.681848,-12.42198 c 0.102644,-0.54704 0.423426,-0.82057 0.96233,-0.82057 h 2.386582 c 0.538905,0 0.859683,0.27353 0.962332,0.82057 l 3.425898,17.31849 -0.256044,-6.58728 c 10.517262,14.65918 3.156702,1.51136 4.976721,-6.43857 0.179635,-0.54706 1.925822,-5.11321 2.439065,-5.11321 h 2.502062 c 0.230959,0 0.397762,0.072 0.500411,0.21595 0.102644,0.11516 0.08982,0.30231 -0.03849,0.56143 l -7.814126,29.54075 c -0.153974,0.51827 -0.513244,0.77739 -1.077812,0.77739 z"
         style="font-style:normal;font-variant:normal;font-weight:normal;font-stretch:normal;font-size:38.97896576px;line-height:1.25;font-family:'DMF Cantell';-inkscape-font-specification:'DMF Cantell, Normal';font-variant-ligatures:normal;font-variant-caps:normal;font-variant-numeric:normal;font-feature-settings:normal;text-align:start;letter-spacing:0px;word-spacing:0px;writing-mode:lr-tb;text-anchor:start;fill:#ffffff;fill-opacity:1;stroke:none;stroke-width:1.82099128"
         id="path78-0"
         inkscape:connector-curvature="0"
         sodipodi:nodetypes="scccccssccsscccccssccccsscccss" />
      <path
         d="m 58.103677,175.56611 c -0.513242,0 -0.769864,-0.28792 -0.769864,-0.86376 v -10.27881 c 0,-1.66995 -0.08982,-3.03757 -0.26945,-4.10288 -0.153974,-1.0653 -0.384935,-1.90027 -0.692879,-2.50491 -0.307948,-0.60464 -0.680049,-1.02212 -1.116305,-1.25246 -0.436257,-0.23034 -0.923837,-0.3455 -1.462743,-0.3455 -1.462745,0 -2.59188,0.53265 -3.387405,1.59796 -0.795528,1.03651 -1.193292,2.80723 -1.193292,5.31215 v 11.57445 c 0,0.57584 -0.256622,0.86376 -0.769865,0.86376 h -3.079459 c -0.513242,0 -0.769865,-0.28792 -0.769865,-0.86376 v -30.23176 c 0,-0.57585 0.256623,-0.86377 0.769865,-0.86377 h 3.079459 c 0.513243,0 0.769865,0.28792 0.769865,0.86377 l 0.04666,10.04192 0.362357,0.25858 c 1.235403,-1.10335 0.681631,-0.59754 1.477156,-1.23098 0.795529,-0.63342 1.911832,-0.95013 3.348912,-0.95013 1.026487,0 1.988817,0.20154 2.886994,0.60463 0.923838,0.3743 1.719365,1.02212 2.386581,1.94347 0.692876,0.92135 1.231785,2.14501 1.616716,3.671 0.410594,1.49719 0.615892,3.36867 0.615892,5.61446 v 10.27881 c 0,0.57584 -0.256623,0.86376 -0.769867,0.86376 z"
         style="font-style:normal;font-variant:normal;font-weight:normal;font-stretch:normal;font-size:38.97896576px;line-height:1.25;font-family:'DMF Cantell';-inkscape-font-specification:'DMF Cantell, Normal';font-variant-ligatures:normal;font-variant-caps:normal;font-variant-numeric:normal;font-feature-settings:normal;text-align:start;letter-spacing:0px;word-spacing:0px;writing-mode:lr-tb;text-anchor:start;fill:#ffffff;fill-opacity:1;stroke:none;stroke-width:1.82099128"
         id="path80-7"
         inkscape:connector-curvature="0"
         sodipodi:nodetypes="ssscscscsssssssssccsscccssss" />
      <path
         d="m 81.306682,172.84525 c 0.230959,0.40309 0.218128,0.7774 -0.03849,1.1229 -0.179634,0.23034 -0.487581,0.47507 -0.923838,0.7342 -0.410593,0.25912 -0.923837,0.48946 -1.539729,0.691 -0.59023,0.20155 -1.257445,0.3599 -2.001648,0.47508 -0.744201,0.14396 -1.526899,0.21593 -2.348089,0.21593 -1.770687,0 -3.246263,-0.31671 -4.42672,-0.95013 -1.154799,-0.63343 -2.078636,-1.4828 -2.771515,-2.54811 -0.692877,-1.06531 -1.18046,-2.28897 -1.462743,-3.67099 -0.256621,-1.38203 -0.38493,-2.83603 -0.38493,-4.36202 0,-1.66995 0.153969,-3.22472 0.461917,-4.66433 0.307946,-1.46839 0.795527,-2.73524 1.462742,-3.80056 0.692877,-1.0941 1.578222,-1.95786 2.656034,-2.5913 1.077811,-0.63342 2.399412,-0.95013 3.964805,-0.95013 1.154796,0 2.232608,0.18715 3.233431,0.56144 1.026486,0.3743 1.899,0.95014 2.617539,1.72753 0.744205,0.77739 1.321602,1.75633 1.732198,2.9368 0.436254,1.15168 0.654384,2.50491 0.654384,4.0597 0,0.83497 -0.07699,1.52599 -0.230959,2.07303 -0.128312,0.54705 -0.359271,0.99332 -0.692879,1.33883 -0.307946,0.31672 -0.731371,0.54706 -1.270278,0.69102 -0.538903,0.14396 -1.20612,0.21593 -2.001645,0.21593 h -7.891116 c 0.07699,0.92135 0.205298,1.77072 0.384933,2.54811 0.205298,0.74859 0.500412,1.41081 0.885345,1.98665 0.384931,0.54705 0.85968,0.97893 1.424247,1.29565 0.590231,0.31672 1.308771,0.47507 2.155623,0.47507 0.744201,0 1.488404,-0.10082 2.232608,-0.30231 0.744201,-0.23034 1.514068,-0.48946 2.309592,-0.77739 0.384935,-0.14396 0.628726,-0.18715 0.731375,-0.12956 0.128311,0.0576 0.218127,0.1296 0.269451,0.21594 z m -5.273576,-10.32198 c 0.589723,0.0275 0.987995,-0.072 1.193292,-0.21595 0.205296,-0.17275 0.307945,-0.59024 0.307945,-1.25246 0,-0.63342 -0.08982,-1.23805 -0.269452,-1.8139 -0.153973,-0.60464 -0.384931,-1.12289 -0.692879,-1.55477 -0.282284,-0.46068 -0.628723,-0.82059 -1.039316,-1.07971 -0.410596,-0.28792 -0.872515,-0.43188 -1.385757,-0.43188 -0.692878,0 -1.28311,0.17275 -1.770688,0.51826 -0.487584,0.3455 -0.898178,0.80618 -1.231784,1.38202 -0.307948,0.57585 -0.551738,1.25246 -0.731373,2.02985 -0.153973,0.74859 -0.09166,1.3882 0.846787,2.19644 z"
         style="font-style:normal;font-variant:normal;font-weight:normal;font-stretch:normal;font-size:38.97896576px;line-height:1.25;font-family:'DMF Cantell';-inkscape-font-specification:'DMF Cantell, Normal';font-variant-ligatures:normal;font-variant-caps:normal;font-variant-numeric:normal;font-feature-settings:normal;text-align:start;letter-spacing:0px;word-spacing:0px;writing-mode:lr-tb;text-anchor:start;fill:#ffffff;fill-opacity:1;stroke:none;stroke-width:1.82099128"
         id="path82-4"
         inkscape:connector-curvature="0"
         sodipodi:nodetypes="cccccscscsccsscccscccsccccscccccscscccsccccs" />
      <path
         d="m 92.035469,175.56611 c -1.745029,0 -3.066628,-0.54705 -3.964805,-1.64115 -0.898175,-1.12289 -1.347264,-2.82164 -1.347264,-5.09621 V 156.5201 h -2.001648 c -0.513244,0 -0.769866,-0.28792 -0.769866,-0.86377 v -1.68434 c 0,-0.57584 0.256622,-0.86376 0.769866,-0.86376 l 1.558395,-0.54966 0.443253,-2.77583 c 0.04978,-0.31175 0.06415,-0.50386 0.192467,-0.56144 0.128309,-0.0864 0.320776,-0.18715 0.577398,-0.30233 l 3.07946,-1.29564 c 0.25662,-0.11517 0.449088,-0.072 0.577398,0.12956 0.128311,0.17276 0.192466,0.41749 0.192466,0.7342 v 4.62114 h 2.42508 c 0.513244,0 0.769866,0.28792 0.769866,0.86376 v 1.68434 c 0,0.57585 -0.256622,0.86377 -0.769866,0.86377 h -2.42508 v 12.43822 c 0,1.0653 0.192466,1.8283 0.577399,2.28897 0.410593,0.46066 0.834022,0.691 1.270276,0.691 h 0.269451 c 0.513243,0 0.769865,0.28792 0.769865,0.86377 v 1.90029 c 0,0.57584 -0.256622,0.86376 -0.769865,0.86376 z"
         style="font-style:normal;font-variant:normal;font-weight:normal;font-stretch:normal;font-size:38.97896576px;line-height:1.25;font-family:'DMF Cantell';-inkscape-font-specification:'DMF Cantell, Normal';font-variant-ligatures:normal;font-variant-caps:normal;font-variant-numeric:normal;font-feature-settings:normal;text-align:start;letter-spacing:0px;word-spacing:0px;writing-mode:lr-tb;text-anchor:start;fill:#ffffff;fill-opacity:1;stroke:none;stroke-width:1.82099128"
         id="path84-5"
         inkscape:connector-curvature="0"
         sodipodi:nodetypes="scscsssscsccccscsssscscssssss" />
      <path
         d="m 101.67621,165.76238 q -2.155627,-0.7342 -3.117952,-2.41854 -0.962321,-1.68434 -0.962321,-3.84375 0,-1.4684 0.46191,-2.72085 0.461919,-1.29565 1.347264,-2.2458 0.923829,-0.95014 2.271099,-1.46839 1.34726,-0.51826 3.11795,-0.51826 2.46357,0 4.23426,0.69101 1.80918,0.691 2.46356,1.42521 0.11549,0.12956 0.19247,0.3887 0.11548,0.25912 -0.19247,0.73419 l -0.80836,1.38203 q -0.11547,0.30231 -0.42341,0.25912 -0.30796,-0.0864 -0.57741,-0.17274 -1.03931,-0.43188 -2.15562,-0.73421 -1.07781,-0.3455 -2.30959,-0.3455 -1.7322,0 -2.50206,0.77738 -0.73137,0.77739 -0.73137,2.02985 0,0.73421 0.34643,1.29564 0.34644,0.56146 1.1548,0.82058 l 4.50371,1.46841 q 2.50206,0.82057 3.42589,2.41853 0.96234,1.59797 0.96234,4.10288 0,1.77072 -0.65439,3.06637 -0.65439,1.29565 -1.77069,2.2026 -1.07781,0.86377 -2.54055,1.29564 -1.46274,0.43188 -3.04097,0.43188 -1.23178,0 -2.34808,-0.17274 -1.1163,-0.17276 -2.040146,-0.43189 -0.923832,-0.30231 -1.616706,-0.69101 -0.65439,-0.3887 -0.923838,-0.82057 -0.346435,-0.56145 -0.03851,-1.1229 l 0.808357,-1.38202 q 0.153973,-0.21594 0.423424,-0.17276 0.307941,0 0.577391,0.0864 1.116298,0.43188 2.309598,0.77738 1.19329,0.30232 2.61754,0.30232 1.19329,0 1.92466,-0.25913 0.76987,-0.25913 1.19329,-0.64783 0.42342,-0.43188 0.5774,-0.95013 0.15397,-0.51826 0.15397,-1.03652 0,-0.99333 -0.69287,-1.51158 -0.6544,-0.56146 -2.3096,-1.1661 z"
         style="font-style:normal;font-variant:normal;font-weight:normal;font-stretch:normal;font-size:38.97896576px;line-height:1.25;font-family:'DMF Cantell';-inkscape-font-specification:'DMF Cantell, Normal';font-variant-ligatures:normal;font-variant-caps:normal;font-variant-numeric:normal;font-feature-settings:normal;text-align:start;letter-spacing:0px;word-spacing:0px;writing-mode:lr-tb;text-anchor:start;fill:#ffffff;fill-opacity:1;stroke:none;stroke-width:1.82099128"
         id="path86-8"
         inkscape:connector-curvature="0" />
      <path
         d="m 122.63458,175.56611 c -1.74503,0 -3.06663,-0.54705 -3.9648,-1.64115 -0.89818,-1.12289 -1.34727,-2.82164 -1.34727,-5.09621 V 156.5201 h -2.00164 c -0.51324,0 -0.76988,-0.28792 -0.76988,-0.86377 v -1.68434 c 0,-0.57584 0.25664,-0.86376 0.76988,-0.86376 l 1.50675,-0.55525 0.49489,-2.77024 c 0.0555,-0.31053 0.0642,-0.50386 0.19247,-0.56144 0.12831,-0.0864 0.32078,-0.18715 0.57739,-0.30233 l 3.07947,-1.29564 c 0.25662,-0.11517 0.44908,-0.072 0.57738,0.12956 0.12832,0.17276 0.19248,0.41749 0.19248,0.7342 v 4.62114 h 2.42508 c 0.51323,0 0.76985,0.28792 0.76985,0.86376 v 1.68434 c 0,0.57585 -0.25662,0.86377 -0.76985,0.86377 h -2.42508 v 12.43822 c 0,1.0653 0.19246,1.8283 0.5774,2.28897 0.4106,0.46066 0.83403,0.691 1.27027,0.691 h 0.26945 c 0.51325,0 0.76987,0.28792 0.76987,0.86377 v 1.90029 c 0,0.57584 -0.25662,0.86376 -0.76987,0.86376 z"
         style="font-style:normal;font-variant:normal;font-weight:normal;font-stretch:normal;font-size:38.97896576px;line-height:1.25;font-family:'DMF Cantell';-inkscape-font-specification:'DMF Cantell, Normal';font-variant-ligatures:normal;font-variant-caps:normal;font-variant-numeric:normal;font-feature-settings:normal;text-align:start;letter-spacing:0px;word-spacing:0px;writing-mode:lr-tb;text-anchor:start;fill:#ffffff;fill-opacity:1;stroke:none;stroke-width:1.82099128"
         id="path88-6"
         inkscape:connector-curvature="0"
         sodipodi:nodetypes="scscsssscsccccscsssscscssssss" />
      <path
         d="m 136.52402,176.08436 q -2.77151,0 -4.5807,-0.90694 -1.80918,-0.95015 -2.84849,-2.50492 -1.03933,-1.59797 -1.46273,-3.71418 -0.42343,-2.15942 -0.42343,-4.57797 0,-2.41853 0.42343,-4.53476 0.4234,-2.1594 1.46273,-3.75737 1.03931,-1.64115 2.84849,-2.5913 1.80919,-0.95013 4.5807,-0.95013 2.77152,0 4.5807,0.95013 1.80918,0.95015 2.8485,2.54811 1.03931,1.59797 1.46275,3.75737 0.42342,2.15942 0.42342,4.53478 0,2.41853 -0.42342,4.57795 -0.42344,2.11622 -1.46275,3.71418 -1.03932,1.59796 -2.8485,2.54811 -1.80918,0.90694 -4.5807,0.90694 z m 0,-3.88693 q 1.42426,0 2.34808,-0.60464 0.92385,-0.64782 1.42425,-1.68434 0.53892,-1.0797 0.73139,-2.50492 0.19246,-1.4252 0.19246,-3.06635 0,-1.59798 -0.19246,-3.02318 -0.19247,-1.46841 -0.73139,-2.54811 -0.5004,-1.0797 -1.42425,-1.68434 -0.92382,-0.64783 -2.34808,-0.64783 -1.46274,0 -2.38657,0.64783 -0.88536,0.60464 -1.42425,1.68434 -0.50043,1.0797 -0.69288,2.54811 -0.19247,1.4252 -0.19247,3.02318 0,1.64115 0.19247,3.06635 0.19245,1.42522 0.69288,2.50492 0.53889,1.03652 1.42425,1.68434 0.92383,0.60464 2.38657,0.60464 z"
         style="font-style:normal;font-variant:normal;font-weight:normal;font-stretch:normal;font-size:38.97896576px;line-height:1.25;font-family:'DMF Cantell';-inkscape-font-specification:'DMF Cantell, Normal';font-variant-ligatures:normal;font-variant-caps:normal;font-variant-numeric:normal;font-feature-settings:normal;text-align:start;letter-spacing:0px;word-spacing:0px;writing-mode:lr-tb;text-anchor:start;fill:#ffffff;fill-opacity:1;stroke:none;stroke-width:1.82099128"
         id="path90-3"
         inkscape:connector-curvature="0" />
      <path
         d="m 162.21646,175.56611 q -0.73138,0 -0.73138,-0.86376 v -12.17908 q 0,-1.25246 -0.19246,-2.37535 -0.15397,-1.16609 -0.5774,-2.02986 -0.38493,-0.86375 -1.07781,-1.38201 -0.65439,-0.51826 -1.65521,-0.51826 l -4.0418,-0.0432 v 18.52775 q 0,0.86377 -0.76986,0.86377 h -3.07944 q -0.76988,0 -0.76988,-0.86377 v -21.29179 q 0,-0.86376 0.76988,-0.86376 2.07862,0 3.96479,0.0432 1.88617,0 4.31125,0 1.61671,0 3.00247,0.56144 1.42424,0.56145 2.46357,1.64115 1.03931,1.07971 1.6552,2.67767 0.61589,1.55478 0.61589,3.58462 v 13.64749 q 0,0.86376 -0.73136,0.86376 z"
         style="font-style:normal;font-variant:normal;font-weight:normal;font-stretch:normal;font-size:38.97896576px;line-height:1.25;font-family:'DMF Cantell';-inkscape-font-specification:'DMF Cantell, Normal';font-variant-ligatures:normal;font-variant-caps:normal;font-variant-numeric:normal;font-feature-settings:normal;text-align:start;letter-spacing:0px;word-spacing:0px;writing-mode:lr-tb;text-anchor:start;fill:#ffffff;fill-opacity:1;stroke:none;stroke-width:1.82099128"
         id="path92-0"
         inkscape:connector-curvature="0" />
      <path
         d="m 185.43388,172.84525 c 0.23096,0.40309 0.21812,0.7774 -0.0386,1.1229 -0.17962,0.23034 -0.48757,0.47507 -0.92382,0.7342 -0.4106,0.25912 -0.92383,0.48946 -1.53974,0.691 -0.59023,0.20155 -1.25745,0.3599 -2.00164,0.47508 -0.74421,0.14396 -1.5269,0.21593 -2.34809,0.21593 -1.77069,0 -3.24627,-0.31671 -4.42671,-0.95013 -1.15481,-0.63343 -2.07865,-1.4828 -2.77153,-2.54811 -0.69287,-1.06531 -1.18044,-2.28897 -1.46273,-3.67099 -0.25663,-1.38203 -0.38494,-2.83603 -0.38494,-4.36202 0,-1.66995 0.15398,-3.22472 0.46192,-4.66433 0.30794,-1.46839 0.79552,-2.73524 1.46274,-3.80056 0.69288,-1.0941 1.57822,-1.95786 2.65604,-2.5913 1.0778,-0.63342 2.3994,-0.95013 3.9648,-0.95013 1.1548,0 2.23261,0.18715 3.23342,0.56144 1.02649,0.3743 1.899,0.95014 2.61755,1.72753 0.74419,0.77739 1.3216,1.75633 1.7322,2.9368 0.43626,1.15168 0.65437,2.50491 0.65437,4.0597 0,0.83497 -0.077,1.52599 -0.23094,2.07303 -0.12832,0.54705 -0.35928,0.99332 -0.6929,1.33883 -0.30794,0.31672 -0.73136,0.54706 -1.27026,0.69102 -0.53891,0.14396 -1.20612,0.21593 -2.00166,0.21593 h -7.89112 c 0.077,0.92135 0.20531,1.77072 0.38494,2.54811 0.20531,0.74859 0.50042,1.41081 0.88536,1.98665 0.38491,0.54705 0.85967,0.97893 1.42424,1.29565 0.59022,0.31672 1.30878,0.47507 2.15562,0.47507 0.74419,0 1.48841,-0.10082 2.2326,-0.30231 0.74421,-0.23034 1.51407,-0.48946 2.3096,-0.77739 0.38493,-0.14396 0.62873,-0.18715 0.73138,-0.12956 0.12831,0.0576 0.21812,0.1296 0.26944,0.21594 z m -5.27357,-10.32198 c 0.59022,-0.004 0.988,-0.072 1.19329,-0.21595 0.20531,-0.17275 0.30795,-0.59024 0.30795,-1.25246 0,-0.63342 -0.09,-1.23805 -0.26945,-1.8139 -0.15397,-0.60464 -0.38493,-1.12289 -0.69287,-1.55477 -0.28229,-0.46068 -0.62873,-0.82059 -1.03933,-1.07971 -0.4106,-0.28792 -0.8725,-0.43188 -1.38575,-0.43188 -0.69288,0 -1.28312,0.17275 -1.77069,0.51826 -0.48759,0.3455 -0.89818,0.80618 -1.23178,1.38202 -0.30795,0.57585 -0.55173,1.25246 -0.73138,2.02985 -0.15396,0.74859 -0.20367,1.63106 0.54985,2.45555 z"
         style="font-style:normal;font-variant:normal;font-weight:normal;font-stretch:normal;font-size:38.97896576px;line-height:1.25;font-family:'DMF Cantell';-inkscape-font-specification:'DMF Cantell, Normal';font-variant-ligatures:normal;font-variant-caps:normal;font-variant-numeric:normal;font-feature-settings:normal;text-align:start;letter-spacing:0px;word-spacing:0px;writing-mode:lr-tb;text-anchor:start;fill:#ffffff;fill-opacity:1;stroke:none;stroke-width:1.82099128"
         id="path94-6"
         inkscape:connector-curvature="0"
         sodipodi:nodetypes="cccccscscscccscccscccsccccscccccscscccsccccs" />
      <text
         xml:space="preserve"
         style="font-style:normal;font-variant:normal;font-weight:bold;font-stretch:normal;font-size:16.24707603px;line-height:1.25;font-family:'DMF Cantell';-inkscape-font-specification:'DMF Cantell, Bold';font-variant-ligatures:normal;font-variant-caps:normal;font-variant-numeric:normal;font-feature-settings:normal;text-align:start;letter-spacing:0px;word-spacing:0px;writing-mode:lr-tb;text-anchor:start;fill:#ffffff;fill-opacity:1;stroke:none;stroke-width:1.26319814"
         x="184.88989"
         y="155.53526"
         id="text9887"><tspan
           sodipodi:role="line"
           id="tspan9885"
           x="184.88989"
           y="155.53526"
           style="font-style:normal;font-variant:normal;font-weight:bold;font-stretch:normal;font-size:16.24707603px;font-family:'DMF Cantell';-inkscape-font-specification:'DMF Cantell, Bold';font-variant-ligatures:normal;font-variant-caps:normal;font-variant-numeric:normal;font-feature-settings:normal;text-align:start;writing-mode:lr-tb;text-anchor:start;fill:#ffffff;stroke-width:1.26319814">©</tspan></text>
      <path
         d="m 30.846855,128.50807 c -0.282283,0 -0.526074,-0.0576 -0.73137,-0.17276 -0.179636,-0.11516 -0.295115,-0.31671 -0.346439,-0.60463 l -3.92631,-20.98948 -4.157272,20.98948 c -0.05132,0.28792 -0.179635,0.48947 -0.384931,0.60463 -0.179635,0.11518 -0.410595,0.17276 -0.692879,0.17276 h -2.463567 c -0.564567,0 -0.923838,-0.25913 -1.077812,-0.77739 L 9.6370814,98.189934 C 9.4061218,97.671674 9.5600934,97.412544 10.099,97.412544 h 3.656857 c 0.590231,0 0.936671,0.27353 1.039317,0.82058 l 5.47694,24.203536 13.400685,4.25175 -12.013148,-16.03332 2.681848,-12.421966 c 0.102644,-0.54705 0.423426,-0.82058 0.96233,-0.82058 h 2.386582 c 0.538905,0 0.859681,0.27353 0.96233,0.82058 l 3.425899,17.318476 -0.256043,-6.58728 c 10.517261,14.65918 3.1567,1.51137 4.976719,-6.43857 0.179636,-0.54705 1.925823,-5.113206 2.439067,-5.113206 h 2.502061 c 0.230958,0 0.397762,0.072 0.500412,0.21594 0.102644,0.11517 0.08982,0.30232 -0.03849,0.56145 l -7.814127,29.540746 c -0.153973,0.51826 -0.513245,0.77739 -1.077811,0.77739 z"
         style="font-style:normal;font-variant:normal;font-weight:normal;font-stretch:normal;font-size:38.97896576px;font-family:'DMF Cantell';-inkscape-font-specification:'DMF Cantell, Normal';font-variant-ligatures:normal;font-variant-caps:normal;font-variant-numeric:normal;font-feature-settings:normal;text-align:start;writing-mode:lr-tb;text-anchor:start;fill:url(#linearGradient924);fill-opacity:1;stroke-width:1.82099128"
         id="path78"
         inkscape:connector-curvature="0"
         sodipodi:nodetypes="scccccssccsscccccssccccsscccss" />
      <path
         d="m 58.103679,128.50807 c -0.513242,0 -0.769864,-0.28792 -0.769864,-0.86377 v -10.2788 c 0,-1.66995 -0.08982,-3.03757 -0.269453,-4.10288 -0.153974,-1.06531 -0.384933,-1.90028 -0.692878,-2.50492 -0.307946,-0.60464 -0.680049,-1.02213 -1.116304,-1.25245 -0.436257,-0.23034 -0.923839,-0.34551 -1.462744,-0.34551 -1.462743,0 -2.591878,0.53266 -3.387405,1.59796 -0.795526,1.03652 -1.193291,2.80724 -1.193291,5.31215 v 11.57445 c 0,0.57585 -0.25662,0.86377 -0.769863,0.86377 h -3.079461 c -0.513243,0 -0.769865,-0.28792 -0.769865,-0.86377 V 97.412544 c 0,-0.57584 0.256622,-0.86376 0.769865,-0.86376 h 3.079461 c 0.513243,0 0.769863,0.28792 0.769863,0.86376 l 0.04666,10.041916 0.362355,0.25857 c 1.235406,-1.10334 0.681631,-0.59753 1.477158,-1.23096 0.795526,-0.63343 1.91183,-0.95014 3.348912,-0.95014 1.026486,0 1.988818,0.20154 2.886993,0.60463 0.923838,0.3743 1.719365,1.02213 2.386581,1.94347 0.692878,0.92135 1.231784,2.14502 1.616716,3.67101 0.410594,1.49719 0.615892,3.36867 0.615892,5.61446 v 10.2788 c 0,0.57585 -0.256622,0.86377 -0.769866,0.86377 z"
         style="font-style:normal;font-variant:normal;font-weight:normal;font-stretch:normal;font-size:38.97896576px;font-family:'DMF Cantell';-inkscape-font-specification:'DMF Cantell, Normal';font-variant-ligatures:normal;font-variant-caps:normal;font-variant-numeric:normal;font-feature-settings:normal;text-align:start;writing-mode:lr-tb;text-anchor:start;fill:url(#linearGradient922);fill-opacity:1;stroke-width:1.82099128"
         id="path80"
         inkscape:connector-curvature="0"
         sodipodi:nodetypes="ssscscscsssssssssccsscccssss" />
      <path
         d="m 81.306682,125.7872 c 0.230959,0.4031 0.218128,0.7774 -0.03849,1.12291 -0.179636,0.23034 -0.487582,0.47507 -0.923838,0.73419 -0.410595,0.25913 -0.923839,0.48947 -1.53973,0.69101 -0.590229,0.20154 -1.257446,0.3599 -2.001649,0.47507 -0.744202,0.14396 -1.526899,0.21594 -2.348086,0.21594 -1.770691,0 -3.246264,-0.31671 -4.426724,-0.95013 -1.154797,-0.63343 -2.078635,-1.4828 -2.771513,-2.54811 -0.692878,-1.06531 -1.18046,-2.28897 -1.462743,-3.671 -0.256621,-1.38202 -0.384933,-2.83602 -0.384933,-4.36201 0,-1.66995 0.153974,-3.22472 0.46192,-4.66433 0.307945,-1.4684 0.795527,-2.73525 1.462742,-3.80057 0.692878,-1.0941 1.578224,-1.95786 2.656034,-2.59129 1.07781,-0.63343 2.399411,-0.95014 3.964803,-0.95014 1.154798,0 2.232608,0.18715 3.233433,0.56145 1.026485,0.37429 1.899,0.95014 2.617539,1.72753 0.744202,0.77738 1.321603,1.75631 1.732197,2.9368 0.436256,1.15168 0.654385,2.50491 0.654385,4.0597 0,0.83496 -0.07698,1.52598 -0.230959,2.07303 -0.128311,0.54705 -0.359271,0.99332 -0.692878,1.33883 -0.307948,0.31671 -0.731373,0.54705 -1.270277,0.69101 -0.538906,0.14397 -1.206123,0.21594 -2.001649,0.21594 h -7.891114 c 0.07699,0.92135 0.205297,1.77072 0.384932,2.54811 0.205297,0.74859 0.500413,1.41081 0.885345,1.98665 0.384931,0.54705 0.859682,0.97893 1.424249,1.29565 0.59023,0.31672 1.308771,0.47507 2.155622,0.47507 0.744202,0 1.488405,-0.10083 2.232608,-0.30231 0.744202,-0.23034 1.514067,-0.48947 2.309594,-0.77739 0.384933,-0.14396 0.628723,-0.18715 0.731373,-0.12957 0.12831,0.0576 0.218128,0.1296 0.269451,0.21595 z m -5.273574,-10.32198 c 0.589723,0.0275 0.987994,-0.072 1.193291,-0.21594 0.205298,-0.17275 0.307945,-0.59024 0.307945,-1.25246 0,-0.63343 -0.08983,-1.23806 -0.269453,-1.8139 -0.153971,-0.60464 -0.384931,-1.12289 -0.692878,-1.55477 -0.282283,-0.46068 -0.628723,-0.82059 -1.039317,-1.07971 -0.410595,-0.28793 -0.872514,-0.43189 -1.385757,-0.43189 -0.692878,0 -1.283107,0.17275 -1.770687,0.51826 -0.487583,0.34551 -0.898177,0.80619 -1.231785,1.38203 -0.307946,0.57584 -0.551738,1.25246 -0.731372,2.02985 -0.153972,0.74859 -0.09166,1.38819 0.846788,2.19644 z"
         style="font-style:normal;font-variant:normal;font-weight:normal;font-stretch:normal;font-size:38.97896576px;font-family:'DMF Cantell';-inkscape-font-specification:'DMF Cantell, Normal';font-variant-ligatures:normal;font-variant-caps:normal;font-variant-numeric:normal;font-feature-settings:normal;text-align:start;writing-mode:lr-tb;text-anchor:start;fill:url(#linearGradient920);fill-opacity:1;stroke-width:1.82099128"
         id="path82"
         inkscape:connector-curvature="0"
         sodipodi:nodetypes="cccccscscsccsscccscccsccccscccccscscccsccccs" />
      <path
         d="m 92.035469,128.50807 c -1.745029,0 -3.06663,-0.54705 -3.964805,-1.64115 -0.898175,-1.12289 -1.347262,-2.82164 -1.347262,-5.09622 v -12.30864 h -2.00165 c -0.513242,0 -0.769864,-0.28792 -0.769864,-0.86377 v -1.68434 c 0,-0.57584 0.256622,-0.86376 0.769864,-0.86376 l 1.558396,-0.54967 0.443254,-2.77583 c 0.04978,-0.31175 0.06415,-0.50386 0.192465,-0.56144 0.128311,-0.0864 0.320777,-0.18715 0.577398,-0.30232 l 3.07946,-1.29565 c 0.256622,-0.11517 0.449088,-0.072 0.577399,0.12957 0.128311,0.17275 0.192467,0.41748 0.192467,0.7342 v 4.62114 h 2.425077 c 0.513242,0 0.769865,0.28792 0.769865,0.86376 v 1.68434 c 0,0.57585 -0.256623,0.86377 -0.769865,0.86377 h -2.425077 v 12.43821 c 0,1.06531 0.192466,1.8283 0.577398,2.28897 0.410593,0.46067 0.834019,0.69101 1.270275,0.69101 h 0.269449 c 0.513244,0 0.769867,0.28792 0.769867,0.86377 v 1.90028 c 0,0.57585 -0.256623,0.86377 -0.769867,0.86377 z"
         style="font-style:normal;font-variant:normal;font-weight:normal;font-stretch:normal;font-size:38.97896576px;font-family:'DMF Cantell';-inkscape-font-specification:'DMF Cantell, Normal';font-variant-ligatures:normal;font-variant-caps:normal;font-variant-numeric:normal;font-feature-settings:normal;text-align:start;writing-mode:lr-tb;text-anchor:start;fill:url(#linearGradient918);fill-opacity:1;stroke-width:1.82099128"
         id="path84"
         inkscape:connector-curvature="0"
         sodipodi:nodetypes="scscsssscsccccscsssscscssssss" />
      <path
         d="m 101.67622,118.70434 q -2.155638,-0.7342 -3.117959,-2.41854 -0.962324,-1.68434 -0.962324,-3.84375 0,-1.4684 0.461911,-2.72087 0.461919,-1.29563 1.34726,-2.24578 0.923832,-0.95014 2.271112,-1.4684 1.34726,-0.51826 3.11794,-0.51826 2.46358,0 4.23426,0.69101 1.80918,0.69101 2.46356,1.42521 0.11549,0.12957 0.19247,0.3887 0.11548,0.25913 -0.19247,0.7342 l -0.80835,1.38203 q -0.11548,0.30231 -0.42342,0.25912 -0.30796,-0.0864 -0.57741,-0.17275 -1.03931,-0.43189 -2.15561,-0.7342 -1.07781,-0.34551 -2.3096,-0.34551 -1.73219,0 -2.50206,0.77739 -0.73137,0.77739 -0.73137,2.02984 0,0.73421 0.34644,1.29565 0.34644,0.56145 1.1548,0.82058 l 4.50371,1.4684 q 2.50205,0.82058 3.42589,2.41854 0.96233,1.59796 0.96233,4.10288 0,1.77072 -0.65438,3.06637 -0.65439,1.29564 -1.7707,2.2026 -1.0778,0.86376 -2.54055,1.29564 -1.46274,0.43188 -3.04097,0.43188 -1.23177,0 -2.34808,-0.17275 -1.1163,-0.17276 -2.040147,-0.43188 -0.92383,-0.30231 -1.616703,-0.69101 -0.654391,-0.3887 -0.923837,-0.82057 -0.346439,-0.56145 -0.03851,-1.12291 l 0.808353,-1.38201 q 0.153977,-0.21595 0.423424,-0.17276 0.307946,0 0.577392,0.0864 1.116298,0.43189 2.309598,0.77739 1.19329,0.30232 2.61754,0.30232 1.19329,0 1.92466,-0.25913 0.76987,-0.25914 1.1933,-0.64783 0.42341,-0.43188 0.57739,-0.95013 0.15398,-0.51826 0.15398,-1.03652 0,-0.99334 -0.69288,-1.51159 -0.6544,-0.56145 -2.30961,-1.16609 z"
         style="font-style:normal;font-variant:normal;font-weight:normal;font-stretch:normal;font-size:38.97896576px;font-family:'DMF Cantell';-inkscape-font-specification:'DMF Cantell, Normal';font-variant-ligatures:normal;font-variant-caps:normal;font-variant-numeric:normal;font-feature-settings:normal;text-align:start;writing-mode:lr-tb;text-anchor:start;fill:url(#linearGradient916);fill-opacity:1;stroke-width:1.82099128"
         id="path86"
         inkscape:connector-curvature="0" />
      <path
         d="m 122.63457,128.50807 c -1.74501,0 -3.06661,-0.54705 -3.96479,-1.64115 -0.89816,-1.12289 -1.34727,-2.82164 -1.34727,-5.09622 v -12.30864 h -2.00163 c -0.51325,0 -0.76987,-0.28792 -0.76987,-0.86377 v -1.68434 c 0,-0.57584 0.25662,-0.86376 0.76987,-0.86376 l 1.50675,-0.55525 0.49488,-2.77025 c 0.0555,-0.31053 0.0642,-0.50386 0.19247,-0.56144 0.12832,-0.0864 0.32078,-0.18715 0.5774,-0.30232 l 3.07946,-1.29565 c 0.25662,-0.11517 0.44907,-0.072 0.5774,0.12957 0.1283,0.17275 0.19247,0.41748 0.19247,0.7342 v 4.62114 h 2.42506 c 0.51325,0 0.76986,0.28792 0.76986,0.86376 v 1.68434 c 0,0.57585 -0.25661,0.86377 -0.76986,0.86377 h -2.42506 v 12.43821 c 0,1.06531 0.19245,1.8283 0.57738,2.28897 0.41062,0.46067 0.83403,0.69101 1.27029,0.69101 h 0.26946 c 0.51323,0 0.76985,0.28792 0.76985,0.86377 v 1.90028 c 0,0.57585 -0.25662,0.86377 -0.76985,0.86377 z"
         style="font-style:normal;font-variant:normal;font-weight:normal;font-stretch:normal;font-size:38.97896576px;font-family:'DMF Cantell';-inkscape-font-specification:'DMF Cantell, Normal';font-variant-ligatures:normal;font-variant-caps:normal;font-variant-numeric:normal;font-feature-settings:normal;text-align:start;writing-mode:lr-tb;text-anchor:start;fill:url(#linearGradient914);fill-opacity:1;stroke-width:1.82099128"
         id="path88"
         inkscape:connector-curvature="0"
         sodipodi:nodetypes="scscsssscsccccscsssscscssssss" />
      <path
         d="m 136.52402,129.02632 q -2.77152,0 -4.5807,-0.90694 -1.80917,-0.95015 -2.8485,-2.50492 -1.03933,-1.59797 -1.46273,-3.71419 -0.42342,-2.15941 -0.42342,-4.57796 0,-2.41854 0.42342,-4.53476 0.4234,-2.1594 1.46273,-3.75738 1.03933,-1.64115 2.8485,-2.59129 1.80918,-0.95014 4.5807,-0.95014 2.7715,0 4.58068,0.95014 1.80919,0.95014 2.84851,2.5481 1.03932,1.59798 1.46275,3.75738 0.42343,2.15941 0.42343,4.53477 0,2.41854 -0.42343,4.57795 -0.42343,2.11623 -1.46275,3.71419 -1.03932,1.59796 -2.84851,2.54811 -1.80918,0.90694 -4.58068,0.90694 z m 0,-3.88693 q 1.42424,0 2.34808,-0.60464 0.92385,-0.64782 1.42424,-1.68434 0.53892,-1.07971 0.73139,-2.50492 0.19246,-1.42521 0.19246,-3.06636 0,-1.59797 -0.19246,-3.02318 -0.19246,-1.4684 -0.73139,-2.5481 -0.5004,-1.0797 -1.42424,-1.68434 -0.92384,-0.64783 -2.34808,-0.64783 -1.46274,0 -2.38659,0.64783 -0.88534,0.60464 -1.42424,1.68434 -0.50041,1.0797 -0.69287,2.5481 -0.19248,1.42521 -0.19248,3.02318 0,1.64115 0.19248,3.06636 0.19246,1.42521 0.69287,2.50492 0.5389,1.03652 1.42424,1.68434 0.92385,0.60464 2.38659,0.60464 z"
         style="font-style:normal;font-variant:normal;font-weight:normal;font-stretch:normal;font-size:38.97896576px;font-family:'DMF Cantell';-inkscape-font-specification:'DMF Cantell, Normal';font-variant-ligatures:normal;font-variant-caps:normal;font-variant-numeric:normal;font-feature-settings:normal;text-align:start;writing-mode:lr-tb;text-anchor:start;fill:url(#linearGradient912);fill-opacity:1;stroke-width:1.82099128"
         id="path90"
         inkscape:connector-curvature="0" />
      <path
         d="m 162.21644,128.50807 q -0.73136,0 -0.73136,-0.86377 v -12.17908 q 0,-1.25245 -0.19246,-2.37535 -0.15398,-1.16609 -0.57741,-2.02985 -0.38493,-0.86376 -1.07781,-1.38202 -0.65438,-0.51826 -1.65521,-0.51826 l -4.04178,-0.0432 v 18.52775 q 0,0.86377 -0.76987,0.86377 h -3.07946 q -0.76986,0 -0.76986,-0.86377 v -21.29178 q 0,-0.86377 0.76986,-0.86377 2.07863,0 3.9648,0.0432 1.88617,0 4.31124,0 1.61673,0 3.00248,0.56145 1.42425,0.56144 2.46356,1.64115 1.03933,1.07971 1.65522,2.67767 0.61589,1.55477 0.61589,3.58462 v 13.64748 q 0,0.86377 -0.73137,0.86377 z"
         style="font-style:normal;font-variant:normal;font-weight:normal;font-stretch:normal;font-size:38.97896576px;font-family:'DMF Cantell';-inkscape-font-specification:'DMF Cantell, Normal';font-variant-ligatures:normal;font-variant-caps:normal;font-variant-numeric:normal;font-feature-settings:normal;text-align:start;writing-mode:lr-tb;text-anchor:start;fill:url(#linearGradient910);fill-opacity:1;stroke-width:1.82099128"
         id="path92"
         inkscape:connector-curvature="0" />
      <path
         d="m 185.43388,125.7872 c 0.23096,0.4031 0.21812,0.7774 -0.0385,1.12291 -0.17964,0.23034 -0.48758,0.47507 -0.92384,0.73419 -0.41059,0.25913 -0.92383,0.48947 -1.53973,0.69101 -0.59024,0.20154 -1.25746,0.3599 -2.00166,0.47507 -0.74419,0.14396 -1.52688,0.21594 -2.34807,0.21594 -1.77068,0 -3.24627,-0.31671 -4.42673,-0.95013 -1.15479,-0.63343 -2.07864,-1.4828 -2.77151,-2.54811 -0.69288,-1.06531 -1.18046,-2.28897 -1.46274,-3.671 -0.25664,-1.38202 -0.38494,-2.83602 -0.38494,-4.36201 0,-1.66995 0.15398,-3.22472 0.46193,-4.66433 0.30793,-1.4684 0.79551,-2.73525 1.46273,-3.80057 0.69287,-1.0941 1.57823,-1.95786 2.65604,-2.59129 1.07782,-0.63343 2.3994,-0.95014 3.9648,-0.95014 1.1548,0 2.23262,0.18715 3.23343,0.56145 1.02648,0.37429 1.899,0.95014 2.61753,1.72753 0.74422,0.77738 1.32161,1.75631 1.73221,2.9368 0.43626,1.15168 0.65439,2.50491 0.65439,4.0597 0,0.83496 -0.077,1.52598 -0.23096,2.07303 -0.12831,0.54705 -0.35928,0.99332 -0.69288,1.33883 -0.30795,0.31671 -0.73138,0.54705 -1.27028,0.69101 -0.5389,0.14397 -1.20612,0.21594 -2.00164,0.21594 h -7.89113 c 0.077,0.92135 0.2053,1.77072 0.38494,2.54811 0.20529,0.74859 0.50041,1.41081 0.88534,1.98665 0.38493,0.54705 0.85969,0.97893 1.42426,1.29565 0.59023,0.31672 1.30877,0.47507 2.15561,0.47507 0.7442,0 1.48841,-0.10083 2.23261,-0.30231 0.74419,-0.23034 1.51406,-0.48947 2.3096,-0.77739 0.38493,-0.14396 0.62872,-0.18715 0.73136,-0.12957 0.12832,0.0576 0.21813,0.1296 0.26945,0.21595 z m -5.27357,-10.32198 c 0.59022,-0.004 0.98799,-0.072 1.19329,-0.21594 0.2053,-0.17275 0.30794,-0.59024 0.30794,-1.25246 0,-0.63343 -0.09,-1.23806 -0.26945,-1.8139 -0.15397,-0.60464 -0.38494,-1.12289 -0.69287,-1.55477 -0.28229,-0.46068 -0.62873,-0.82059 -1.03933,-1.07971 -0.41059,-0.28793 -0.87251,-0.43189 -1.38575,-0.43189 -0.69289,0 -1.28311,0.17275 -1.77069,0.51826 -0.48757,0.34551 -0.89817,0.80619 -1.23178,1.38203 -0.30794,0.57584 -0.55174,1.25246 -0.73137,2.02985 -0.15397,0.74859 -0.20368,1.63105 0.54984,2.45555 z"
         style="font-style:normal;font-variant:normal;font-weight:normal;font-stretch:normal;font-size:38.97896576px;font-family:'DMF Cantell';-inkscape-font-specification:'DMF Cantell, Normal';font-variant-ligatures:normal;font-variant-caps:normal;font-variant-numeric:normal;font-feature-settings:normal;text-align:start;writing-mode:lr-tb;text-anchor:start;fill:url(#linearGradient908);fill-opacity:1;stroke-width:1.82099128"
         id="path94"
         inkscape:connector-curvature="0"
         sodipodi:nodetypes="cccccscscscccscccscccsccccscccccscscccsccccs" />
      <text
         xml:space="preserve"
         style="font-style:normal;font-variant:normal;font-weight:bold;font-stretch:normal;font-size:16.24707603px;line-height:1.25;font-family:'DMF Cantell';-inkscape-font-specification:'DMF Cantell, Bold';font-variant-ligatures:normal;font-variant-caps:normal;font-variant-numeric:normal;font-feature-settings:normal;text-align:start;letter-spacing:0px;word-spacing:0px;writing-mode:lr-tb;text-anchor:start;fill:#ffbb24;fill-opacity:1;stroke:none;stroke-width:1.26319814"
         x="184.89587"
         y="108.46604"
         id="text9887-9"><tspan
           sodipodi:role="line"
           id="tspan9885-8"
           x="184.89587"
           y="108.46604"
           style="font-style:normal;font-variant:normal;font-weight:bold;font-stretch:normal;font-size:16.24707603px;font-family:'DMF Cantell';-inkscape-font-specification:'DMF Cantell, Bold';font-variant-ligatures:normal;font-variant-caps:normal;font-variant-numeric:normal;font-feature-settings:normal;text-align:start;writing-mode:lr-tb;text-anchor:start;fill:#ffbb24;fill-opacity:1;stroke-width:1.26319814">©</tspan></text>
      <path
         d="m 64.436938,238.41301 c -0.282283,0 -0.526074,-0.0576 -0.73137,-0.17276 -0.179636,-0.11516 -0.295115,-0.31671 -0.346439,-0.60463 l -3.92631,-20.98948 -4.157272,20.98948 c -0.05132,0.28792 -0.179635,0.48947 -0.38493,0.60463 -0.179636,0.11518 -0.410596,0.17276 -0.69288,0.17276 H 51.73417 c -0.564567,0 -0.923838,-0.25913 -1.077812,-0.77739 l -7.429193,-29.54075 c -0.23096,-0.51826 -0.07699,-0.77739 0.461918,-0.77739 h 3.656857 c 0.590231,0 0.936671,0.27353 1.039317,0.82058 l 5.476941,24.20354 13.400684,4.25175 -12.013148,-16.03332 2.681848,-12.42197 c 0.102644,-0.54705 0.423426,-0.82058 0.96233,-0.82058 h 2.386582 c 0.538905,0 0.859681,0.27353 0.96233,0.82058 l 3.425899,17.31848 -0.256043,-6.58728 c 10.517257,14.65918 3.1567,1.51137 4.976719,-6.43857 0.179637,-0.54705 1.925828,-5.11321 2.439068,-5.11321 h 2.50206 c 0.23096,0 0.39776,0.072 0.50041,0.21594 0.10265,0.11517 0.0898,0.30232 -0.0385,0.56145 l -7.814126,29.54075 c -0.153973,0.51826 -0.513245,0.77739 -1.077811,0.77739 z"
         style="font-style:normal;font-variant:normal;font-weight:normal;font-stretch:normal;font-size:38.97896576px;line-height:1.25;font-family:'DMF Cantell';-inkscape-font-specification:'DMF Cantell, Normal';font-variant-ligatures:normal;font-variant-caps:normal;font-variant-numeric:normal;font-feature-settings:normal;text-align:start;letter-spacing:0px;word-spacing:0px;writing-mode:lr-tb;text-anchor:start;fill:url(#linearGradient924-0);fill-opacity:1;stroke:none;stroke-width:1.82099128"
         id="path78-6"
         inkscape:connector-curvature="0"
         sodipodi:nodetypes="scccccssccsscccccssccccsscccss" />
      <path
         d="m 103.88808,238.27426 c -0.28228,0 -0.52607,-0.0576 -0.73137,-0.17276 -0.17963,-0.11516 -0.29511,-0.31671 -0.34644,-0.60463 l -3.926306,-20.98948 -4.157271,20.98948 c -0.05132,0.28792 -0.179636,0.48947 -0.38493,0.60463 -0.179636,0.11518 -0.410597,0.17276 -0.69288,0.17276 h -2.463567 c -0.564568,0 -0.923839,-0.25913 -1.077813,-0.77739 L 82.67831,207.95612 c -0.23096,-0.51826 -0.07699,-0.77739 0.461918,-0.77739 h 3.656857 c 0.590232,0 0.936671,0.27353 1.039318,0.82058 l 5.47694,24.20354 13.400687,4.25175 -12.01315,-16.03332 2.681847,-12.42197 c 0.102644,-0.54705 0.423426,-0.82058 0.96233,-0.82058 h 2.386583 c 0.5389,0 0.85968,0.27353 0.96233,0.82058 l 3.4259,17.31848 -0.25604,-6.58728 c 10.51725,14.65918 3.1567,1.51137 4.97671,-6.43857 0.17964,-0.54705 1.92583,-5.11321 2.43907,-5.11321 h 2.50206 c 0.23096,0 0.39776,0.072 0.50041,0.21594 0.10265,0.11517 0.0898,0.30232 -0.0385,0.56145 l -7.81412,29.54075 c -0.15398,0.51826 -0.51325,0.77739 -1.07781,0.77739 z"
         style="font-style:normal;font-variant:normal;font-weight:normal;font-stretch:normal;font-size:38.97896576px;line-height:1.25;font-family:'DMF Cantell';-inkscape-font-specification:'DMF Cantell, Normal';font-variant-ligatures:normal;font-variant-caps:normal;font-variant-numeric:normal;font-feature-settings:normal;text-align:start;letter-spacing:0px;word-spacing:0px;writing-mode:lr-tb;text-anchor:start;fill:#000000;fill-opacity:1;stroke:none;stroke-width:1.82099128"
         id="path78-6-3"
         inkscape:connector-curvature="0"
         sodipodi:nodetypes="scccccssccsscccccssccccsscccss" />
      <path
         d="m 145.53278,237.89747 c -0.28228,0 -0.52607,-0.0576 -0.73137,-0.17276 -0.17963,-0.11516 -0.29511,-0.31671 -0.34644,-0.60463 l -3.92631,-20.98948 -4.15727,20.98948 c -0.0513,0.28792 -0.17963,0.48947 -0.38493,0.60463 -0.17963,0.11518 -0.4106,0.17276 -0.69288,0.17276 h -2.46357 c -0.56456,0 -0.92383,-0.25913 -1.07781,-0.77739 l -7.42919,-29.54075 c -0.23096,-0.51826 -0.077,-0.77739 0.46192,-0.77739 h 3.65686 c 0.59023,0 0.93666,0.27353 1.03931,0.82058 l 5.47694,24.20354 13.40069,4.25175 -12.01315,-16.03332 2.68185,-12.42197 c 0.10264,-0.54705 0.42342,-0.82058 0.96233,-0.82058 h 2.38658 c 0.5389,0 0.85968,0.27353 0.96233,0.82058 l 3.4259,17.31848 -0.25604,-6.58728 c 10.51725,14.65918 3.1567,1.51137 4.97671,-6.43857 0.17964,-0.54705 1.92583,-5.11321 2.43907,-5.11321 h 2.50206 c 0.23096,0 0.39776,0.072 0.50041,0.21594 0.10265,0.11517 0.0898,0.30232 -0.0385,0.56145 l -7.81412,29.54075 c -0.15398,0.51826 -0.51325,0.77739 -1.07781,0.77739 z"
         style="font-style:normal;font-variant:normal;font-weight:normal;font-stretch:normal;font-size:38.97896576px;line-height:1.25;font-family:'DMF Cantell';-inkscape-font-specification:'DMF Cantell, Normal';font-variant-ligatures:normal;font-variant-caps:normal;font-variant-numeric:normal;font-feature-settings:normal;text-align:start;letter-spacing:0px;word-spacing:0px;writing-mode:lr-tb;text-anchor:start;fill:url(#linearGradient9976);fill-opacity:1;stroke:none;stroke-width:1.82099128"
         id="path78-6-3-6"
         inkscape:connector-curvature="0"
         sodipodi:nodetypes="scccccssccsscccccssccccsscccss" />
    </g>
  </g>
</svg>
