<?xml version="1.0" encoding="UTF-8" standalone="no"?>
<!-- Created with Inkscape (http://www.inkscape.org/) -->

<svg
   xmlns:dc="http://purl.org/dc/elements/1.1/"
   xmlns:cc="http://creativecommons.org/ns#"
   xmlns:rdf="http://www.w3.org/1999/02/22-rdf-syntax-ns#"
   xmlns:svg="http://www.w3.org/2000/svg"
   xmlns="http://www.w3.org/2000/svg"
   xmlns:xlink="http://www.w3.org/1999/xlink"
   xmlns:sodipodi="http://sodipodi.sourceforge.net/DTD/sodipodi-0.dtd"
   xmlns:inkscape="http://www.inkscape.org/namespaces/inkscape"
   width="220.67963mm"
   height="32.477539mm"
   viewBox="0 0 220.67963 32.477539"
   version="1.1"
   id="svg4657"
   sodipodi:docname="logo.svg"
   inkscape:version="0.92.4 (5da689c313, 2019-01-14)">
  <defs
     id="defs4651">
    <linearGradient
       inkscape:collect="always"
       xlink:href="#linearGradient906"
       id="linearGradient908"
       x1="98.026817"
       y1="91.806122"
       x2="98.026817"
       y2="134.63376"
       gradientUnits="userSpaceOnUse"
       gradientTransform="matrix(1.1247797,0,0,1.1079878,-11.979033,103.73491)" />
    <linearGradient
       inkscape:collect="always"
       id="linearGradient906">
      <stop
         style="stop-color:#ffcf1e;stop-opacity:1"
         offset="0"
         id="stop902" />
      <stop
         style="stop-color:#ff5c40;stop-opacity:1"
         offset="1"
         id="stop904" />
    </linearGradient>
    <linearGradient
       inkscape:collect="always"
       xlink:href="#linearGradient906"
       id="linearGradient4725"
       gradientUnits="userSpaceOnUse"
       gradientTransform="matrix(1.1247797,0,0,1.1079878,-11.979033,103.73491)"
       x1="98.026817"
       y1="91.806122"
       x2="98.026817"
       y2="134.63376" />
    <linearGradient
       inkscape:collect="always"
       xlink:href="#linearGradient906"
       id="linearGradient4727"
       gradientUnits="userSpaceOnUse"
       gradientTransform="matrix(1.1247797,0,0,1.1079878,-11.979033,103.73491)"
       x1="98.026817"
       y1="91.806122"
       x2="98.026817"
       y2="134.63376" />
    <linearGradient
       inkscape:collect="always"
       xlink:href="#linearGradient906"
       id="linearGradient4729"
       gradientUnits="userSpaceOnUse"
       gradientTransform="matrix(1.1247797,0,0,1.1079878,-11.979033,103.73491)"
       x1="98.026817"
       y1="91.806122"
       x2="98.026817"
       y2="134.63376" />
    <linearGradient
       inkscape:collect="always"
       xlink:href="#linearGradient906"
       id="linearGradient4731"
       gradientUnits="userSpaceOnUse"
       gradientTransform="matrix(1.1247797,0,0,1.1079878,-11.979033,103.73491)"
       x1="98.026817"
       y1="91.806122"
       x2="98.026817"
       y2="134.63376" />
    <linearGradient
       inkscape:collect="always"
       xlink:href="#linearGradient906"
       id="linearGradient4733"
       gradientUnits="userSpaceOnUse"
       gradientTransform="matrix(1.1247797,0,0,1.1079878,-11.979033,103.73491)"
       x1="98.026817"
       y1="91.806122"
       x2="98.026817"
       y2="134.63376" />
    <linearGradient
       inkscape:collect="always"
       xlink:href="#linearGradient906"
       id="linearGradient4735"
       gradientUnits="userSpaceOnUse"
       gradientTransform="matrix(1.1247797,0,0,1.1079878,-11.979033,103.73491)"
       x1="98.026817"
       y1="91.806122"
       x2="98.026817"
       y2="134.63376" />
    <linearGradient
       inkscape:collect="always"
       xlink:href="#linearGradient906"
       id="linearGradient4737"
       gradientUnits="userSpaceOnUse"
       gradientTransform="matrix(1.1247797,0,0,1.1079878,-11.979033,103.73491)"
       x1="98.026817"
       y1="91.806122"
       x2="98.026817"
       y2="134.63376" />
    <linearGradient
       inkscape:collect="always"
       xlink:href="#linearGradient906"
       id="linearGradient4739"
       gradientUnits="userSpaceOnUse"
       gradientTransform="matrix(1.1247797,0,0,1.1079878,-11.979033,103.73491)"
       x1="98.026817"
       y1="91.806122"
       x2="98.026817"
       y2="134.63376" />
  </defs>
  <sodipodi:namedview
     id="base"
     pagecolor="#ffffff"
     bordercolor="#666666"
     borderopacity="1.0"
     inkscape:pageopacity="0.0"
     inkscape:pageshadow="2"
     inkscape:zoom="0.7"
     inkscape:cx="606.61394"
     inkscape:cy="91.579036"
     inkscape:document-units="mm"
     inkscape:current-layer="layer1"
     showgrid="false"
     inkscape:window-width="1283"
     inkscape:window-height="388"
     inkscape:window-x="1850"
     inkscape:window-y="584"
     inkscape:window-maximized="0" />
  <metadata
     id="metadata4654">
    <rdf:RDF>
      <cc:Work
         rdf:about="">
        <dc:format>image/svg+xml</dc:format>
        <dc:type
           rdf:resource="http://purl.org/dc/dcmitype/StillImage" />
        <dc:title></dc:title>
      </cc:Work>
    </rdf:RDF>
  </metadata>
  <g
     inkscape:label="Layer 1"
     inkscape:groupmode="layer"
     id="layer1"
     transform="translate(-5.3200311,-201.3089)">
    <path
       d="m 29.595763,233.26819 c -0.321512,0 -0.599184,-0.0576 -0.83301,-0.17276 -0.204601,-0.11516 -0.336128,-0.31671 -0.394585,-0.60463 l -4.47196,-20.98948 -4.73502,20.98948 c -0.05845,0.28792 -0.204599,0.48947 -0.438426,0.60463 -0.204599,0.11518 -0.467656,0.17276 -0.78917,0.17276 h -2.805936 c -0.643026,0 -1.052226,-0.25913 -1.227598,-0.77739 L 5.4384076,202.95005 c -0.2630571,-0.51826 -0.087689,-0.77739 0.5261132,-0.77739 h 4.1650602 c 0.672258,0 1.066843,0.27353 1.183754,0.82058 l 6.238086,24.20354 15.263016,4.25175 -13.682649,-16.03332 3.054552,-12.42197 c 0.116908,-0.54705 0.48227,-0.82058 1.096067,-0.82058 h 2.718252 c 0.613799,0 0.979154,0.27353 1.096068,0.82058 l 3.902006,17.31848 -0.291626,-6.58728 c 11.978874,14.65918 3.595395,1.51137 5.668347,-6.43857 0.204601,-0.54705 2.19346,-5.11321 2.778031,-5.11321 h 2.84978 c 0.263054,0 0.45304,0.072 0.569955,0.21594 0.11691,0.11517 0.102303,0.30232 -0.04384,0.56145 l -8.900078,29.54075 c -0.175371,0.51826 -0.584572,0.77739 -1.227597,0.77739 z"
       style="font-style:normal;font-variant:normal;font-weight:normal;font-stretch:normal;font-size:38.97896576px;line-height:1.25;font-family:'DMF Cantell';-inkscape-font-specification:'DMF Cantell, Normal';font-variant-ligatures:normal;font-variant-caps:normal;font-variant-numeric:normal;font-feature-settings:normal;text-align:start;letter-spacing:0px;word-spacing:0px;writing-mode:lr-tb;text-anchor:start;fill:url(#linearGradient4725);fill-opacity:1;stroke:none;stroke-width:1.94341052"
       id="path78"
       inkscape:connector-curvature="0"
       sodipodi:nodetypes="scccccssccsscccccssccccsscccss" />
    <path
       d="m 60.640545,233.26819 c -0.584569,0 -0.876854,-0.28792 -0.876854,-0.86377 v -10.2788 c 0,-1.66995 -0.102303,-3.03757 -0.306901,-4.10288 -0.175372,-1.06531 -0.438427,-1.90028 -0.789168,-2.50492 -0.350742,-0.60464 -0.774559,-1.02213 -1.27144,-1.25245 -0.496886,-0.23034 -1.052228,-0.34551 -1.666025,-0.34551 -1.666025,0 -2.95208,0.53266 -3.858165,1.59796 -0.906082,1.03652 -1.359125,2.80724 -1.359125,5.31215 v 11.57445 c 0,0.57585 -0.292282,0.86377 -0.876853,0.86377 h -3.507423 c -0.584568,0 -0.876853,-0.28792 -0.876853,-0.86377 v -30.23176 c 0,-0.57584 0.292285,-0.86376 0.876853,-0.86376 h 3.507423 c 0.584571,0 0.876853,0.28792 0.876853,0.86376 l 0.05315,10.04192 0.412712,0.25857 c 1.407093,-1.10334 0.776361,-0.59753 1.682443,-1.23096 0.906081,-0.63343 2.177524,-0.95014 3.814321,-0.95014 1.169138,0 2.265208,0.20154 3.288206,0.60463 1.052227,0.3743 1.958308,1.02213 2.718251,1.94347 0.789169,0.92135 1.402969,2.14502 1.841396,3.67101 0.467654,1.49719 0.701484,3.36867 0.701484,5.61446 v 10.2788 c 0,0.57585 -0.292286,0.86377 -0.876858,0.86377 z"
       style="font-style:normal;font-variant:normal;font-weight:normal;font-stretch:normal;font-size:38.97896576px;line-height:1.25;font-family:'DMF Cantell';-inkscape-font-specification:'DMF Cantell, Normal';font-variant-ligatures:normal;font-variant-caps:normal;font-variant-numeric:normal;font-feature-settings:normal;text-align:start;letter-spacing:0px;word-spacing:0px;writing-mode:lr-tb;text-anchor:start;fill:url(#linearGradient4727);fill-opacity:1;stroke:none;stroke-width:1.94341052"
       id="path80"
       inkscape:connector-curvature="0"
       sodipodi:nodetypes="ssscscscsssssssssccsscccssss" />
    <path
       d="m 87.068134,230.54732 c 0.263054,0.4031 0.248442,0.7774 -0.04384,1.12291 -0.204601,0.23034 -0.555343,0.47507 -1.052225,0.73419 -0.467656,0.25913 -1.052227,0.48947 -1.753711,0.69101 -0.672256,0.20154 -1.432195,0.3599 -2.279824,0.47507 -0.847625,0.14396 -1.739095,0.21594 -2.674404,0.21594 -2.01677,0 -3.697408,-0.31671 -5.04192,-0.95013 -1.315283,-0.63343 -2.36751,-1.4828 -3.156678,-2.54811 -0.789169,-1.06531 -1.344511,-2.28897 -1.666025,-3.671 -0.292282,-1.38202 -0.438426,-2.83602 -0.438426,-4.36201 0,-1.66995 0.175372,-3.22472 0.526114,-4.66433 0.350742,-1.4684 0.906081,-2.73525 1.666022,-3.80057 0.789168,-1.0941 1.797553,-1.95786 3.025152,-2.59129 1.227596,-0.63343 2.732864,-0.95014 4.515803,-0.95014 1.315283,0 2.542878,0.18715 3.682792,0.56145 1.169138,0.37429 2.162908,0.95014 2.981306,1.72753 0.847624,0.77738 1.505267,1.75631 1.972926,2.9368 0.496882,1.15168 0.745324,2.50491 0.745324,4.0597 0,0.83496 -0.08768,1.52598 -0.263053,2.07303 -0.146145,0.54705 -0.409203,0.99332 -0.789173,1.33883 -0.350741,0.31671 -0.833012,0.54705 -1.446809,0.69101 -0.613799,0.14397 -1.373742,0.21594 -2.279823,0.21594 h -8.987764 c 0.08769,0.92135 0.233826,1.77072 0.438427,2.54811 0.233826,0.74859 0.569955,1.41081 1.008382,1.98665 0.438426,0.54705 0.979154,0.97893 1.622181,1.29565 0.672256,0.31672 1.490656,0.47507 2.455194,0.47507 0.847628,0 1.695254,-0.10083 2.542882,-0.30231 0.847625,-0.23034 1.724482,-0.48947 2.630563,-0.77739 0.43843,-0.14396 0.7161,-0.18715 0.833015,-0.12957 0.146142,0.0576 0.248442,0.1296 0.306896,0.21595 z m -6.006457,-10.32198 c 0.671676,0.0275 1.125297,-0.072 1.359127,-0.21594 0.233829,-0.17275 0.350739,-0.59024 0.350739,-1.25246 0,-0.63343 -0.102314,-1.23806 -0.306899,-1.8139 -0.175369,-0.60464 -0.438427,-1.12289 -0.789168,-1.55477 -0.321514,-0.46068 -0.716101,-0.82059 -1.183755,-1.07971 -0.467658,-0.28793 -0.99377,-0.43189 -1.578341,-0.43189 -0.789169,0 -1.461423,0.17275 -2.016764,0.51826 -0.555342,0.34551 -1.022998,0.80619 -1.402968,1.38203 -0.350741,0.57584 -0.628415,1.25246 -0.833012,2.02985 -0.175373,0.74859 -0.104398,1.38819 0.964465,2.19644 z"
       style="font-style:normal;font-variant:normal;font-weight:normal;font-stretch:normal;font-size:38.97896576px;line-height:1.25;font-family:'DMF Cantell';-inkscape-font-specification:'DMF Cantell, Normal';font-variant-ligatures:normal;font-variant-caps:normal;font-variant-numeric:normal;font-feature-settings:normal;text-align:start;letter-spacing:0px;word-spacing:0px;writing-mode:lr-tb;text-anchor:start;fill:url(#linearGradient4729);fill-opacity:1;stroke:none;stroke-width:1.94341052"
       id="path82"
       inkscape:connector-curvature="0"
       sodipodi:nodetypes="cccccscscsccsscccscccsccccscccccscscccsccccs" />
    <path
       d="m 99.287928,233.26819 c -1.987538,0 -3.492807,-0.54705 -4.515805,-1.64115 -1.022994,-1.12289 -1.534493,-2.82164 -1.534493,-5.09622 v -12.30864 h -2.279824 c -0.584569,0 -0.876854,-0.28792 -0.876854,-0.86377 v -1.68434 c 0,-0.57584 0.292285,-0.86376 0.876854,-0.86376 l 1.77497,-0.54967 0.504854,-2.77583 c 0.0567,-0.31175 0.07306,-0.50386 0.219213,-0.56144 0.146142,-0.0864 0.365355,-0.18715 0.657641,-0.30232 l 3.50742,-1.29565 c 0.292285,-0.11517 0.511499,-0.072 0.657643,0.12957 0.146141,0.17275 0.219213,0.41748 0.219213,0.7342 v 4.62114 h 2.7621 c 0.58457,0 0.87685,0.28792 0.87685,0.86376 v 1.68434 c 0,0.57585 -0.29228,0.86377 -0.87685,0.86377 h -2.7621 v 12.43821 c 0,1.06531 0.219214,1.8283 0.65764,2.28897 0.467655,0.46067 0.94993,0.69101 1.44681,0.69101 h 0.30689 c 0.58458,0 0.87686,0.28792 0.87686,0.86377 v 1.90028 c 0,0.57585 -0.29228,0.86377 -0.87686,0.86377 z"
       style="font-style:normal;font-variant:normal;font-weight:normal;font-stretch:normal;font-size:38.97896576px;line-height:1.25;font-family:'DMF Cantell';-inkscape-font-specification:'DMF Cantell, Normal';font-variant-ligatures:normal;font-variant-caps:normal;font-variant-numeric:normal;font-feature-settings:normal;text-align:start;letter-spacing:0px;word-spacing:0px;writing-mode:lr-tb;text-anchor:start;fill:url(#linearGradient4731);fill-opacity:1;stroke:none;stroke-width:1.94341052"
       id="path84"
       inkscape:connector-curvature="0"
       sodipodi:nodetypes="scscsssscsccccscsssscscssssss" />
    <path
       d="m 110.26848,223.46446 q -2.45521,-0.7342 -3.55127,-2.41854 -1.09606,-1.68434 -1.09606,-3.84375 0,-1.4684 0.52611,-2.72087 0.52611,-1.29563 1.53449,-2.24578 1.05222,-0.95014 2.58673,-1.4684 1.53449,-0.51826 3.55125,-0.51826 2.80595,0 4.8227,0.69101 2.06061,0.69101 2.80593,1.42521 0.13154,0.12957 0.21922,0.3887 0.13153,0.25913 -0.21922,0.7342 l -0.92069,1.38203 q -0.13152,0.30231 -0.48226,0.25912 -0.35076,-0.0864 -0.65765,-0.17275 -1.18375,-0.43189 -2.45519,-0.7342 -1.22759,-0.34551 -2.63057,-0.34551 -1.97291,0 -2.84977,0.77739 -0.83301,0.77739 -0.83301,2.02984 0,0.73421 0.39458,1.29565 0.39459,0.56145 1.31529,0.82058 l 5.1296,1.4684 q 2.84977,0.82058 3.90199,2.41854 1.09607,1.59796 1.09607,4.10288 0,1.77072 -0.74532,3.06637 -0.74533,1.29564 -2.01678,2.2026 -1.22758,0.86376 -2.89362,1.29564 -1.66602,0.43188 -3.46358,0.43188 -1.40295,0 -2.67439,-0.17275 -1.27144,-0.17276 -2.32368,-0.43188 -1.05222,-0.30231 -1.84138,-0.69101 -0.74533,-0.3887 -1.05222,-0.82057 -0.39459,-0.56145 -0.0439,-1.12291 l 0.92071,-1.38201 q 0.17536,-0.21595 0.48226,-0.17276 0.35075,0 0.65763,0.0864 1.27144,0.43189 2.63057,0.77739 1.35913,0.30232 2.98131,0.30232 1.35912,0 2.19213,-0.25913 0.87686,-0.25915 1.35914,-0.64783 0.48225,-0.43188 0.65763,-0.95013 0.17538,-0.51826 0.17538,-1.03652 0,-0.99334 -0.78917,-1.51159 -0.74535,-0.56145 -2.63059,-1.16609 z"
       style="font-style:normal;font-variant:normal;font-weight:normal;font-stretch:normal;font-size:38.97896576px;line-height:1.25;font-family:'DMF Cantell';-inkscape-font-specification:'DMF Cantell, Normal';font-variant-ligatures:normal;font-variant-caps:normal;font-variant-numeric:normal;font-feature-settings:normal;text-align:start;letter-spacing:0px;word-spacing:0px;writing-mode:lr-tb;text-anchor:start;fill:url(#linearGradient4733);fill-opacity:1;stroke:none;stroke-width:1.94341052"
       id="path86"
       inkscape:connector-curvature="0" />
    <path
       d="m 134.13947,233.26819 c -1.98752,0 -3.49279,-0.54705 -4.51579,-1.64115 -1.02298,-1.12289 -1.5345,-2.82164 -1.5345,-5.09622 v -12.30864 h -2.2798 c -0.58458,0 -0.87687,-0.28792 -0.87687,-0.86377 v -1.68434 c 0,-0.57584 0.29229,-0.86376 0.87687,-0.86376 l 1.71614,-0.55525 0.56366,-2.77025 c 0.0632,-0.31053 0.0731,-0.50386 0.21922,-0.56144 0.14615,-0.0864 0.36536,-0.18715 0.65764,-0.30232 l 3.50742,-1.29565 c 0.29228,-0.11517 0.51148,-0.072 0.65764,0.12957 0.14613,0.17275 0.21922,0.41748 0.21922,0.7342 v 4.62114 h 2.76208 c 0.58458,0 0.87685,0.28792 0.87685,0.86376 v 1.68434 c 0,0.57585 -0.29227,0.86377 -0.87685,0.86377 h -2.76208 v 12.43821 c 0,1.06531 0.2192,1.8283 0.65762,2.28897 0.46769,0.46067 0.94994,0.69101 1.44683,0.69101 h 0.3069 c 0.58456,0 0.87684,0.28792 0.87684,0.86377 v 1.90028 c 0,0.57585 -0.29228,0.86377 -0.87684,0.86377 z"
       style="font-style:normal;font-variant:normal;font-weight:normal;font-stretch:normal;font-size:38.97896576px;line-height:1.25;font-family:'DMF Cantell';-inkscape-font-specification:'DMF Cantell, Normal';font-variant-ligatures:normal;font-variant-caps:normal;font-variant-numeric:normal;font-feature-settings:normal;text-align:start;letter-spacing:0px;word-spacing:0px;writing-mode:lr-tb;text-anchor:start;fill:url(#linearGradient4735);fill-opacity:1;stroke:none;stroke-width:1.94341052"
       id="path88"
       inkscape:connector-curvature="0"
       sodipodi:nodetypes="scscsssscsccccscsssscscssssss" />
    <path
       d="m 149.95917,233.78644 q -3.15668,0 -5.21729,-0.90694 -2.06059,-0.95015 -3.24436,-2.50492 -1.18377,-1.59797 -1.66601,-3.71419 -0.48227,-2.15941 -0.48227,-4.57796 0,-2.41854 0.48227,-4.53476 0.48224,-2.1594 1.66601,-3.75738 1.18377,-1.64115 3.24436,-2.59129 2.06061,-0.95014 5.21729,-0.95014 3.15667,0 5.21727,0.95014 2.06062,0.95014 3.24438,2.5481 1.18376,1.59798 1.66603,3.75738 0.48228,2.15941 0.48228,4.53477 0,2.41854 -0.48228,4.57795 -0.48227,2.11623 -1.66603,3.71419 -1.18376,1.59796 -3.24438,2.54811 -2.0606,0.90694 -5.21727,0.90694 z m 0,-3.88693 q 1.62218,0 2.6744,-0.60464 1.05224,-0.64782 1.62217,-1.68434 0.61382,-1.07971 0.83304,-2.50492 0.2192,-1.42521 0.2192,-3.06636 0,-1.59797 -0.2192,-3.02318 -0.21921,-1.4684 -0.83304,-2.5481 -0.56994,-1.0797 -1.62217,-1.68434 -1.05222,-0.64783 -2.6744,-0.64783 -1.66602,0 -2.71826,0.64783 -1.00837,0.60464 -1.62217,1.68434 -0.56995,1.0797 -0.78916,2.5481 -0.21923,1.42521 -0.21923,3.02318 0,1.64115 0.21923,3.06636 0.21921,1.42521 0.78916,2.50492 0.6138,1.03652 1.62217,1.68434 1.05224,0.60464 2.71826,0.60464 z"
       style="font-style:normal;font-variant:normal;font-weight:normal;font-stretch:normal;font-size:38.97896576px;line-height:1.25;font-family:'DMF Cantell';-inkscape-font-specification:'DMF Cantell, Normal';font-variant-ligatures:normal;font-variant-caps:normal;font-variant-numeric:normal;font-feature-settings:normal;text-align:start;letter-spacing:0px;word-spacing:0px;writing-mode:lr-tb;text-anchor:start;fill:url(#linearGradient4737);fill-opacity:1;stroke:none;stroke-width:1.94341052"
       id="path90"
       inkscape:connector-curvature="0" />
    <path
       d="m 179.22214,233.26819 q -0.833,0 -0.833,-0.86377 v -12.17908 q 0,-1.25245 -0.2192,-2.37535 -0.17538,-1.16609 -0.65766,-2.02985 -0.43842,-0.86376 -1.22759,-1.38202 -0.74533,-0.51826 -1.88524,-0.51826 l -4.60348,-0.0432 v 18.52775 q 0,0.86377 -0.87686,0.86377 h -3.50742 q -0.87685,0 -0.87685,-0.86377 v -21.29178 q 0,-0.86377 0.87685,-0.86377 2.3675,0 4.5158,0.0432 2.14829,0 4.91038,0 1.84141,0 3.41974,0.56145 1.62219,0.56144 2.80593,1.64115 1.18377,1.07971 1.88525,2.67767 0.70148,1.55477 0.70148,3.58462 v 13.64748 q 0,0.86377 -0.83301,0.86377 z"
       style="font-style:normal;font-variant:normal;font-weight:normal;font-stretch:normal;font-size:38.97896576px;line-height:1.25;font-family:'DMF Cantell';-inkscape-font-specification:'DMF Cantell, Normal';font-variant-ligatures:normal;font-variant-caps:normal;font-variant-numeric:normal;font-feature-settings:normal;text-align:start;letter-spacing:0px;word-spacing:0px;writing-mode:lr-tb;text-anchor:start;fill:url(#linearGradient4739);fill-opacity:1;stroke:none;stroke-width:1.94341052"
       id="path92"
       inkscape:connector-curvature="0" />
    <path
       d="m 205.66617,230.54732 c 0.26306,0.4031 0.24844,0.7774 -0.0438,1.12291 -0.2046,0.23034 -0.55534,0.47507 -1.05222,0.73419 -0.46766,0.25913 -1.05222,0.48947 -1.75372,0.69101 -0.67226,0.20154 -1.43221,0.3599 -2.27983,0.47507 -0.84761,0.14396 -1.73908,0.21594 -2.67439,0.21594 -2.01676,0 -3.69741,-0.31671 -5.04192,-0.95013 -1.31528,-0.63343 -2.36752,-1.4828 -3.15668,-2.54811 -0.78917,-1.06531 -1.34451,-2.28897 -1.66602,-3.671 -0.29231,-1.38202 -0.43844,-2.83602 -0.43844,-4.36201 0,-1.66995 0.17538,-3.22472 0.52613,-4.66433 0.35072,-1.4684 0.90606,-2.73525 1.66601,-3.80057 0.78916,-1.0941 1.79756,-1.95786 3.02516,-2.59129 1.2276,-0.63343 2.73285,-0.95014 4.5158,-0.95014 1.31528,0 2.54289,0.18715 3.68278,0.56145 1.16914,0.37429 2.16291,0.95014 2.9813,1.72753 0.84765,0.77738 1.50528,1.75631 1.97294,2.9368 0.49689,1.15168 0.74533,2.50491 0.74533,4.0597 0,0.83496 -0.0877,1.52598 -0.26305,2.07303 -0.14615,0.54705 -0.40921,0.99332 -0.78918,1.33883 -0.35074,0.31671 -0.83302,0.54705 -1.44681,0.69101 -0.61379,0.14397 -1.37374,0.21594 -2.27981,0.21594 h -8.98779 c 0.0877,0.92135 0.23383,1.77072 0.43844,2.54811 0.23382,0.74859 0.56995,1.41081 1.00838,1.98665 0.43842,0.54705 0.97916,0.97893 1.62219,1.29565 0.67226,0.31672 1.49065,0.47507 2.45518,0.47507 0.84763,0 1.69526,-0.10083 2.54288,-0.30231 0.84762,-0.23034 1.72448,-0.48947 2.63058,-0.77739 0.43842,-0.14396 0.71609,-0.18715 0.833,-0.12957 0.14615,0.0576 0.24844,0.1296 0.30689,0.21595 z m -6.00645,-10.32198 c 0.67225,-0.004 1.1253,-0.072 1.35913,-0.21594 0.23383,-0.17275 0.35073,-0.59024 0.35073,-1.25246 0,-0.63343 -0.10251,-1.23806 -0.30689,-1.8139 -0.17537,-0.60464 -0.43844,-1.12289 -0.78916,-1.55477 -0.32153,-0.46068 -0.71611,-0.82059 -1.18377,-1.07971 -0.46765,-0.28793 -0.99377,-0.43189 -1.57833,-0.43189 -0.78919,0 -1.46143,0.17275 -2.01677,0.51826 -0.55533,0.34551 -1.02299,0.80619 -1.40297,1.38203 -0.35073,0.57584 -0.62841,1.25246 -0.83301,2.02985 -0.17536,0.74859 -0.23198,1.63105 0.62626,2.45555 z"
       style="font-style:normal;font-variant:normal;font-weight:normal;font-stretch:normal;font-size:38.97896576px;line-height:1.25;font-family:'DMF Cantell';-inkscape-font-specification:'DMF Cantell, Normal';font-variant-ligatures:normal;font-variant-caps:normal;font-variant-numeric:normal;font-feature-settings:normal;text-align:start;letter-spacing:0px;word-spacing:0px;writing-mode:lr-tb;text-anchor:start;fill:url(#linearGradient908);fill-opacity:1;stroke:none;stroke-width:1.94341052"
       id="path94"
       inkscape:connector-curvature="0"
       sodipodi:nodetypes="cccccscscscccscccscccsccccscccccscscccsccccs" />
    <text
       xml:space="preserve"
       style="font-style:normal;font-variant:normal;font-weight:bold;font-stretch:normal;font-size:16.24707603px;line-height:1.25;font-family:'DMF Cantell';-inkscape-font-specification:'DMF Cantell, Bold';font-variant-ligatures:normal;font-variant-caps:normal;font-variant-numeric:normal;font-feature-settings:normal;text-align:start;letter-spacing:0px;word-spacing:0px;writing-mode:lr-tb;text-anchor:start;fill:#ffbb24;fill-opacity:1;stroke:none;stroke-width:1.26319814"
       x="207.1411"
       y="212.84819"
       id="text9887-9"><tspan
         sodipodi:role="line"
         id="tspan9885-8"
         x="207.1411"
         y="212.84819"
         style="font-style:normal;font-variant:normal;font-weight:bold;font-stretch:normal;font-size:16.24707603px;font-family:'DMF Cantell';-inkscape-font-specification:'DMF Cantell, Bold';font-variant-ligatures:normal;font-variant-caps:normal;font-variant-numeric:normal;font-feature-settings:normal;text-align:start;writing-mode:lr-tb;text-anchor:start;fill:#ffbb24;fill-opacity:1;stroke-width:1.26319814">©</tspan></text>
  </g>
</svg>
